# Blender v2.93.4 OBJ File: 'bulet.blend'
# www.blender.org
mtllib bulet.mtl
o Cylinder
v 0.000000 -1.000000 -1.000000
v 0.000000 1.000000 -0.245393
v 0.195090 -1.000000 -0.980785
v 0.047874 1.000000 -0.240677
v 0.382683 -1.000000 -0.923880
v 0.093908 1.000000 -0.226713
v 0.555570 -1.000000 -0.831470
v 0.136333 1.000000 -0.204036
v 0.707107 -1.000000 -0.707107
v 0.173519 1.000000 -0.173519
v 0.831470 -1.000000 -0.555570
v 0.204036 1.000000 -0.136333
v 0.923880 -1.000000 -0.382683
v 0.226713 1.000000 -0.093908
v 0.980785 -1.000000 -0.195090
v 0.240677 1.000000 -0.047874
v 1.000000 -1.000000 0.000000
v 0.245393 1.000000 0.000000
v 0.980785 -1.000000 0.195090
v 0.240677 1.000000 0.047874
v 0.923880 -1.000000 0.382683
v 0.226713 1.000000 0.093908
v 0.831470 -1.000000 0.555570
v 0.204036 1.000000 0.136333
v 0.707107 -1.000000 0.707107
v 0.173519 1.000000 0.173519
v 0.555570 -1.000000 0.831470
v 0.136333 1.000000 0.204037
v 0.382683 -1.000000 0.923880
v 0.093908 1.000000 0.226713
v 0.195090 -1.000000 0.980785
v 0.047874 1.000000 0.240677
v -0.000000 -1.000000 1.000000
v -0.000000 1.000000 0.245393
v -0.195090 -1.000000 0.980785
v -0.047874 1.000000 0.240677
v -0.382683 -1.000000 0.923880
v -0.093908 1.000000 0.226713
v -0.555570 -1.000000 0.831470
v -0.136333 1.000000 0.204036
v -0.707107 -1.000000 0.707107
v -0.173519 1.000000 0.173519
v -0.831469 -1.000000 0.555570
v -0.204036 1.000000 0.136333
v -0.923880 -1.000000 0.382684
v -0.226713 1.000000 0.093908
v -0.980785 -1.000000 0.195090
v -0.240677 1.000000 0.047874
v -1.000000 -1.000000 -0.000000
v -0.245393 1.000000 0.000000
v -0.980785 -1.000000 -0.195090
v -0.240677 1.000000 -0.047874
v -0.923879 -1.000000 -0.382684
v -0.226713 1.000000 -0.093908
v -0.831470 -1.000000 -0.555570
v -0.204036 1.000000 -0.136333
v -0.707107 -1.000000 -0.707107
v -0.173519 1.000000 -0.173519
v -0.555570 -1.000000 -0.831470
v -0.136333 1.000000 -0.204036
v -0.382683 -1.000000 -0.923880
v -0.093908 1.000000 -0.226713
v -0.195090 -1.000000 -0.980785
v -0.047874 1.000000 -0.240677
v 0.000000 0.000000 -1.000000
v 0.195090 0.000000 -0.980785
v 0.382683 0.000000 -0.923880
v 0.555570 0.000000 -0.831470
v 0.707107 0.000000 -0.707107
v 0.831470 0.000000 -0.555570
v 0.923880 0.000000 -0.382683
v 0.980785 0.000000 -0.195090
v 1.000000 0.000000 0.000000
v 0.980785 0.000000 0.195090
v 0.923880 0.000000 0.382683
v 0.831470 0.000000 0.555570
v 0.707107 0.000000 0.707107
v 0.555570 0.000000 0.831470
v 0.382683 0.000000 0.923880
v 0.195090 0.000000 0.980785
v -0.000000 0.000000 1.000000
v -0.195090 0.000000 0.980785
v -0.382683 0.000000 0.923880
v -0.555570 0.000000 0.831470
v -0.707107 0.000000 0.707107
v -0.831469 0.000000 0.555570
v -0.923880 0.000000 0.382684
v -0.980785 0.000000 0.195090
v -1.000000 0.000000 -0.000000
v -0.980785 0.000000 -0.195090
v -0.923879 0.000000 -0.382684
v -0.831470 0.000000 -0.555570
v -0.707107 0.000000 -0.707107
v -0.555570 0.000000 -0.831470
v -0.382683 0.000000 -0.923880
v -0.195090 0.000000 -0.980785
v 0.000000 -2.400000 -1.000000
v 0.195090 -2.400000 -0.980785
v 0.382683 -2.400000 -0.923880
v 0.555570 -2.400000 -0.831470
v 0.707107 -2.400000 -0.707107
v 0.831470 -2.400000 -0.555570
v 0.923880 -2.400000 -0.382683
v 0.980785 -2.400000 -0.195090
v 1.000000 -2.400000 0.000000
v 0.980785 -2.400000 0.195090
v 0.923880 -2.400000 0.382683
v 0.831470 -2.400000 0.555570
v 0.707107 -2.400000 0.707107
v 0.555570 -2.400000 0.831470
v 0.382684 -2.400000 0.923880
v 0.195090 -2.400000 0.980785
v -0.000000 -2.400000 1.000000
v -0.195090 -2.400000 0.980785
v -0.382683 -2.400000 0.923880
v -0.555570 -2.400000 0.831470
v -0.707107 -2.400000 0.707107
v -0.831469 -2.400000 0.555570
v -0.923879 -2.400000 0.382684
v -0.980785 -2.400000 0.195090
v -1.000000 -2.400000 -0.000000
v -0.980785 -2.400000 -0.195090
v -0.923879 -2.400000 -0.382684
v -0.831470 -2.400000 -0.555570
v -0.707107 -2.400000 -0.707107
v -0.555570 -2.400000 -0.831470
v -0.382683 -2.400000 -0.923880
v -0.195090 -2.400000 -0.980785
vt 1.000000 0.750000
vt 1.000000 1.000000
vt 0.968750 1.000000
vt 0.968750 0.750000
vt 0.937500 1.000000
vt 0.937500 0.750000
vt 0.906250 1.000000
vt 0.906250 0.750000
vt 0.875000 1.000000
vt 0.875000 0.750000
vt 0.843750 1.000000
vt 0.843750 0.750000
vt 0.812500 1.000000
vt 0.812500 0.750000
vt 0.781250 1.000000
vt 0.781250 0.750000
vt 0.750000 1.000000
vt 0.750000 0.750000
vt 0.718750 1.000000
vt 0.718750 0.750000
vt 0.687500 1.000000
vt 0.687500 0.750000
vt 0.656250 1.000000
vt 0.656250 0.750000
vt 0.625000 1.000000
vt 0.625000 0.750000
vt 0.593750 1.000000
vt 0.593750 0.750000
vt 0.562500 1.000000
vt 0.562500 0.750000
vt 0.531250 1.000000
vt 0.531250 0.750000
vt 0.500000 1.000000
vt 0.500000 0.750000
vt 0.468750 1.000000
vt 0.468750 0.750000
vt 0.437500 1.000000
vt 0.437500 0.750000
vt 0.406250 1.000000
vt 0.406250 0.750000
vt 0.375000 1.000000
vt 0.375000 0.750000
vt 0.343750 1.000000
vt 0.343750 0.750000
vt 0.312500 1.000000
vt 0.312500 0.750000
vt 0.281250 1.000000
vt 0.281250 0.750000
vt 0.250000 1.000000
vt 0.250000 0.750000
vt 0.218750 1.000000
vt 0.218750 0.750000
vt 0.187500 1.000000
vt 0.187500 0.750000
vt 0.156250 1.000000
vt 0.156250 0.750000
vt 0.125000 1.000000
vt 0.125000 0.750000
vt 0.093750 1.000000
vt 0.093750 0.750000
vt 0.062500 1.000000
vt 0.062500 0.750000
vt 0.296822 0.485388
vt 0.250000 0.490000
vt 0.203178 0.485388
vt 0.158156 0.471731
vt 0.116663 0.449553
vt 0.080294 0.419706
vt 0.050447 0.383337
vt 0.028269 0.341844
vt 0.014612 0.296822
vt 0.010000 0.250000
vt 0.014612 0.203178
vt 0.028269 0.158156
vt 0.050447 0.116663
vt 0.080294 0.080294
vt 0.116663 0.050447
vt 0.158156 0.028269
vt 0.203178 0.014612
vt 0.250000 0.010000
vt 0.296822 0.014612
vt 0.341844 0.028269
vt 0.383337 0.050447
vt 0.419706 0.080294
vt 0.449553 0.116663
vt 0.471731 0.158156
vt 0.485388 0.203178
vt 0.490000 0.250000
vt 0.485388 0.296822
vt 0.471731 0.341844
vt 0.449553 0.383337
vt 0.419706 0.419706
vt 0.383337 0.449553
vt 0.341844 0.471731
vt 0.031250 1.000000
vt 0.031250 0.750000
vt 0.000000 1.000000
vt 0.000000 0.750000
vt 0.843750 0.500000
vt 0.812500 0.500000
vt 0.812500 0.500000
vt 0.843750 0.500000
vt 0.031250 0.500000
vt 0.000000 0.500000
vt 0.062500 0.500000
vt 0.093750 0.500000
vt 0.125000 0.500000
vt 0.156250 0.500000
vt 0.187500 0.500000
vt 0.218750 0.500000
vt 0.250000 0.500000
vt 0.281250 0.500000
vt 0.312500 0.500000
vt 0.343750 0.500000
vt 0.375000 0.500000
vt 0.406250 0.500000
vt 0.437500 0.500000
vt 0.468750 0.500000
vt 0.500000 0.500000
vt 0.531250 0.500000
vt 0.562500 0.500000
vt 0.593750 0.500000
vt 0.625000 0.500000
vt 0.656250 0.500000
vt 0.687500 0.500000
vt 0.718750 0.500000
vt 0.750000 0.500000
vt 0.781250 0.500000
vt 0.875000 0.500000
vt 0.906250 0.500000
vt 0.937500 0.500000
vt 0.968750 0.500000
vt 1.000000 0.500000
vt 0.750000 0.490000
vt 0.796822 0.485388
vt 0.841844 0.471731
vt 0.883337 0.449553
vt 0.919706 0.419706
vt 0.949553 0.383337
vt 0.971731 0.341844
vt 0.985388 0.296822
vt 0.990000 0.250000
vt 0.985388 0.203178
vt 0.971731 0.158156
vt 0.949553 0.116663
vt 0.919706 0.080294
vt 0.883337 0.050447
vt 0.841844 0.028269
vt 0.796822 0.014612
vt 0.750000 0.010000
vt 0.703178 0.014612
vt 0.658156 0.028269
vt 0.616663 0.050447
vt 0.580294 0.080294
vt 0.550447 0.116663
vt 0.528269 0.158156
vt 0.514612 0.203178
vt 0.510000 0.250000
vt 0.514612 0.296822
vt 0.528269 0.341844
vt 0.550447 0.383337
vt 0.580294 0.419706
vt 0.616663 0.449553
vt 0.658156 0.471731
vt 0.703178 0.485388
vt 0.531250 0.500000
vt 0.562500 0.500000
vt 0.250000 0.500000
vt 0.281250 0.500000
vt 0.937500 0.500000
vt 0.968750 0.500000
vt 0.656250 0.500000
vt 0.687500 0.500000
vt 0.375000 0.500000
vt 0.406250 0.500000
vt 0.093750 0.500000
vt 0.125000 0.500000
vt 0.781250 0.500000
vt 0.500000 0.500000
vt 0.218750 0.500000
vt 0.906250 0.500000
vt 0.625000 0.500000
vt 0.343750 0.500000
vt 0.062500 0.500000
vt 0.750000 0.500000
vt 0.468750 0.500000
vt 0.187500 0.500000
vt 0.875000 0.500000
vt 0.593750 0.500000
vt 0.312500 0.500000
vt 0.031250 0.500000
vt 0.718750 0.500000
vt 0.437500 0.500000
vt 0.156250 0.500000
vt 1.000000 0.500000
vt 0.000000 0.500000
vn 0.0784 0.6005 -0.7958
vn 0.2321 0.6005 -0.7652
vn 0.3769 0.6005 -0.7052
vn 0.5073 0.6005 -0.6181
vn 0.6181 0.6005 -0.5073
vn 0.7052 0.6005 -0.3769
vn 0.7652 0.6005 -0.2321
vn 0.7958 0.6005 -0.0784
vn 0.7958 0.6005 0.0784
vn 0.7652 0.6005 0.2321
vn 0.7052 0.6005 0.3769
vn 0.6181 0.6005 0.5073
vn 0.5073 0.6005 0.6181
vn 0.3769 0.6005 0.7052
vn 0.2321 0.6005 0.7652
vn 0.0784 0.6005 0.7958
vn -0.0784 0.6005 0.7958
vn -0.2321 0.6005 0.7652
vn -0.3769 0.6005 0.7052
vn -0.5073 0.6005 0.6181
vn -0.6181 0.6005 0.5073
vn -0.7052 0.6005 0.3769
vn -0.7652 0.6005 0.2321
vn -0.7958 0.6005 0.0784
vn -0.7958 0.6005 -0.0784
vn -0.7652 0.6005 -0.2321
vn -0.7052 0.6005 -0.3769
vn -0.6181 0.6005 -0.5073
vn -0.5073 0.6005 -0.6181
vn -0.3769 0.6005 -0.7052
vn 0.0000 1.0000 0.0000
vn -0.2321 0.6005 -0.7652
vn -0.0784 0.6005 -0.7958
vn 0.8819 0.0000 -0.4714
vn -0.0980 0.0000 -0.9952
vn -0.2903 0.0000 -0.9569
vn -0.4714 0.0000 -0.8819
vn -0.6344 0.0000 -0.7730
vn -0.7730 0.0000 -0.6344
vn -0.8819 0.0000 -0.4714
vn -0.9569 0.0000 -0.2903
vn -0.9952 0.0000 -0.0980
vn -0.9952 0.0000 0.0980
vn -0.9569 0.0000 0.2903
vn -0.8819 0.0000 0.4714
vn -0.7730 0.0000 0.6344
vn -0.6344 0.0000 0.7730
vn -0.4714 0.0000 0.8819
vn -0.2903 0.0000 0.9569
vn -0.0980 0.0000 0.9952
vn 0.0980 0.0000 0.9952
vn 0.2903 0.0000 0.9569
vn 0.4714 0.0000 0.8819
vn 0.6344 0.0000 0.7730
vn 0.7730 0.0000 0.6344
vn 0.8819 0.0000 0.4714
vn 0.9569 0.0000 0.2903
vn 0.9952 0.0000 0.0980
vn 0.9952 0.0000 -0.0980
vn 0.9569 0.0000 -0.2903
vn 0.7730 0.0000 -0.6344
vn 0.6344 0.0000 -0.7730
vn 0.4714 0.0000 -0.8819
vn 0.2903 0.0000 -0.9569
vn 0.0980 0.0000 -0.9952
vn 0.0000 -1.0000 0.0000
usemtl None
s off
f 65/1/1 2/2/1 4/3/1 66/4/1
f 66/4/2 4/3/2 6/5/2 67/6/2
f 67/6/3 6/5/3 8/7/3 68/8/3
f 68/8/4 8/7/4 10/9/4 69/10/4
f 69/10/5 10/9/5 12/11/5 70/12/5
f 70/12/6 12/11/6 14/13/6 71/14/6
f 71/14/7 14/13/7 16/15/7 72/16/7
f 72/16/8 16/15/8 18/17/8 73/18/8
f 73/18/9 18/17/9 20/19/9 74/20/9
f 74/20/10 20/19/10 22/21/10 75/22/10
f 75/22/11 22/21/11 24/23/11 76/24/11
f 76/24/12 24/23/12 26/25/12 77/26/12
f 77/26/13 26/25/13 28/27/13 78/28/13
f 78/28/14 28/27/14 30/29/14 79/30/14
f 79/30/15 30/29/15 32/31/15 80/32/15
f 80/32/16 32/31/16 34/33/16 81/34/16
f 81/34/17 34/33/17 36/35/17 82/36/17
f 82/36/18 36/35/18 38/37/18 83/38/18
f 83/38/19 38/37/19 40/39/19 84/40/19
f 84/40/20 40/39/20 42/41/20 85/42/20
f 85/42/21 42/41/21 44/43/21 86/44/21
f 86/44/22 44/43/22 46/45/22 87/46/22
f 87/46/23 46/45/23 48/47/23 88/48/23
f 88/48/24 48/47/24 50/49/24 89/50/24
f 89/50/25 50/49/25 52/51/25 90/52/25
f 90/52/26 52/51/26 54/53/26 91/54/26
f 91/54/27 54/53/27 56/55/27 92/56/27
f 92/56/28 56/55/28 58/57/28 93/58/28
f 93/58/29 58/57/29 60/59/29 94/60/29
f 94/60/30 60/59/30 62/61/30 95/62/30
f 4/63/31 2/64/31 64/65/31 62/66/31 60/67/31 58/68/31 56/69/31 54/70/31 52/71/31 50/72/31 48/73/31 46/74/31 44/75/31 42/76/31 40/77/31 38/78/31 36/79/31 34/80/31 32/81/31 30/82/31 28/83/31 26/84/31 24/85/31 22/86/31 20/87/31 18/88/31 16/89/31 14/90/31 12/91/31 10/92/31 8/93/31 6/94/31
f 95/62/32 62/61/32 64/95/32 96/96/32
f 96/96/33 64/95/33 2/97/33 65/98/33
f 11/99/34 13/100/34 103/101/34 102/102/34
f 63/103/35 96/96/35 65/98/35 1/104/35
f 61/105/36 95/62/36 96/96/36 63/103/36
f 59/106/37 94/60/37 95/62/37 61/105/37
f 57/107/38 93/58/38 94/60/38 59/106/38
f 55/108/39 92/56/39 93/58/39 57/107/39
f 53/109/40 91/54/40 92/56/40 55/108/40
f 51/110/41 90/52/41 91/54/41 53/109/41
f 49/111/42 89/50/42 90/52/42 51/110/42
f 47/112/43 88/48/43 89/50/43 49/111/43
f 45/113/44 87/46/44 88/48/44 47/112/44
f 43/114/45 86/44/45 87/46/45 45/113/45
f 41/115/46 85/42/46 86/44/46 43/114/46
f 39/116/47 84/40/47 85/42/47 41/115/47
f 37/117/48 83/38/48 84/40/48 39/116/48
f 35/118/49 82/36/49 83/38/49 37/117/49
f 33/119/50 81/34/50 82/36/50 35/118/50
f 31/120/51 80/32/51 81/34/51 33/119/51
f 29/121/52 79/30/52 80/32/52 31/120/52
f 27/122/53 78/28/53 79/30/53 29/121/53
f 25/123/54 77/26/54 78/28/54 27/122/54
f 23/124/55 76/24/55 77/26/55 25/123/55
f 21/125/56 75/22/56 76/24/56 23/124/56
f 19/126/57 74/20/57 75/22/57 21/125/57
f 17/127/58 73/18/58 74/20/58 19/126/58
f 15/128/59 72/16/59 73/18/59 17/127/59
f 13/100/60 71/14/60 72/16/60 15/128/60
f 11/99/34 70/12/34 71/14/34 13/100/34
f 9/129/61 69/10/61 70/12/61 11/99/61
f 7/130/62 68/8/62 69/10/62 9/129/62
f 5/131/63 67/6/63 68/8/63 7/130/63
f 3/132/64 66/4/64 67/6/64 5/131/64
f 1/133/65 65/1/65 66/4/65 3/132/65
f 97/134/66 98/135/66 99/136/66 100/137/66 101/138/66 102/139/66 103/140/66 104/141/66 105/142/66 106/143/66 107/144/66 108/145/66 109/146/66 110/147/66 111/148/66 112/149/66 113/150/66 114/151/66 115/152/66 116/153/66 117/154/66 118/155/66 119/156/66 120/157/66 121/158/66 122/159/66 123/160/66 124/161/66 125/162/66 126/163/66 127/164/66 128/165/66
f 29/121/52 31/120/52 112/166/52 111/167/52
f 47/112/43 49/111/43 121/168/43 120/169/43
f 3/132/64 5/131/64 99/170/64 98/171/64
f 21/125/56 23/124/56 108/172/56 107/173/56
f 39/116/47 41/115/47 117/174/47 116/175/47
f 57/107/38 59/106/38 126/176/38 125/177/38
f 13/100/60 15/128/60 104/178/60 103/101/60
f 31/120/51 33/119/51 113/179/51 112/166/51
f 49/111/42 51/110/42 122/180/42 121/168/42
f 5/131/63 7/130/63 100/181/63 99/170/63
f 23/124/55 25/123/55 109/182/55 108/172/55
f 41/115/46 43/114/46 118/183/46 117/174/46
f 59/106/37 61/105/37 127/184/37 126/176/37
f 15/128/59 17/127/59 105/185/59 104/178/59
f 33/119/50 35/118/50 114/186/50 113/179/50
f 51/110/41 53/109/41 123/187/41 122/180/41
f 7/130/62 9/129/62 101/188/62 100/181/62
f 25/123/54 27/122/54 110/189/54 109/182/54
f 43/114/45 45/113/45 119/190/45 118/183/45
f 61/105/36 63/103/36 128/191/36 127/184/36
f 17/127/58 19/126/58 106/192/58 105/185/58
f 35/118/49 37/117/49 115/193/49 114/186/49
f 53/109/40 55/108/40 124/194/40 123/187/40
f 9/129/61 11/99/61 102/102/61 101/188/61
f 27/122/53 29/121/53 111/167/53 110/189/53
f 45/113/44 47/112/44 120/169/44 119/190/44
f 1/133/65 3/132/65 98/171/65 97/195/65
f 63/103/35 1/104/35 97/196/35 128/191/35
f 19/126/57 21/125/57 107/173/57 106/192/57
f 37/117/48 39/116/48 116/175/48 115/193/48
f 55/108/39 57/107/39 125/177/39 124/194/39
